<svg width="234" height="67" viewBox="0 0 234 67" fill="none" xmlns="http://www.w3.org/2000/svg">
<path d="M225.196 65.5273H8.80789C4.42268 65.5273 0.869141 62.1223 0.869141 57.9203V8.80063C0.869141 4.59865 4.42268 1.1936 8.80789 1.1936H225.196C229.581 1.1936 233.134 4.59865 233.134 8.80063V57.9203C233.134 62.1223 229.581 65.5273 225.196 65.5273Z" fill="#141415"/>
<path d="M8.80404 2.02665C4.90607 2.02665 1.73476 5.06544 1.73476 8.80053V57.9202C1.73476 61.6553 4.90607 64.694 8.80404 64.694H225.196C229.094 64.694 232.265 61.6553 232.265 57.9202V8.80053C232.265 5.06544 229.094 2.02665 225.196 2.02665H8.80404ZM225.196 66.3604H8.80404C3.94837 66.3604 0 62.5729 0 57.9202V8.80053C0 4.14776 3.94837 0.360352 8.80404 0.360352H225.196C230.052 0.360352 234 4.14776 234 8.80053V57.9202C234 62.5729 230.052 66.3604 225.196 66.3604Z" fill="#A7A9AB"/>
<path d="M81.1437 17.6351L80.2532 14.9626C80.0348 14.3025 79.85 13.566 79.6819 12.9381H79.6483C79.4845 13.566 79.3123 14.3186 79.1149 14.9626L78.2412 17.6351H81.1437ZM77.9052 19.1284L76.9307 22.2034H74.7969L78.426 11.3604H81.0597L84.735 22.2034H82.5214L81.4965 19.1284" fill="white"/>
<path d="M87.8205 14.3708L89.1479 18.3394C89.3831 19.0317 89.5469 19.6595 89.6981 20.3035H89.7485C89.8997 19.6595 90.0846 19.0478 90.303 18.3394L91.6135 14.3708H93.7767L90.6558 22.2033H88.627L85.5859 14.3708" fill="white"/>
<path d="M100.007 18.3717C98.5456 18.3556 97.1511 18.6454 97.1511 19.8367C97.1511 20.6095 97.6719 20.9637 98.3272 20.9637C99.1631 20.9637 99.7553 20.4485 99.9527 19.885C100.007 19.7401 100.007 19.5952 100.007 19.4503V18.3717ZM102.019 20.3197C102.019 21.0281 102.053 21.7204 102.154 22.1993H100.289L100.142 21.334H100.087C99.6041 21.9417 98.7472 22.3764 97.6719 22.3764C96.0254 22.3764 95.1055 21.2374 95.1055 20.046C95.1055 18.0819 96.9326 17.0716 99.9527 17.0877V16.9589C99.9527 16.4438 99.7385 15.5905 98.2936 15.5905C97.4871 15.5905 96.647 15.832 96.0926 16.1701L95.6893 14.8821C96.2942 14.5279 97.3527 14.1938 98.6464 14.1938C101.263 14.1938 102.019 15.7837 102.019 17.5063" fill="white"/>
<path d="M104.938 14.371H107V22.2034H104.938V14.371ZM105.959 13.244C105.274 13.244 104.82 12.761 104.82 12.1815C104.82 11.5697 105.287 11.1028 105.98 11.1028C106.681 11.1028 107.118 11.5697 107.135 12.1815C107.135 12.761 106.681 13.244 105.98 13.244" fill="white"/>
<path d="M109.971 22.2034H112.037V10.7646H109.971V22.2034Z" fill="white"/>
<path d="M119.355 18.3717C117.893 18.3556 116.499 18.6454 116.499 19.8367C116.499 20.6095 117.02 20.9637 117.675 20.9637C118.515 20.9637 119.103 20.4485 119.305 19.885C119.355 19.7401 119.355 19.5952 119.355 19.4503V18.3717ZM121.367 20.3197C121.367 21.0281 121.401 21.7204 121.501 22.1993H119.641L119.489 21.334H119.439C118.952 21.9417 118.095 22.3764 117.02 22.3764C115.377 22.3764 114.453 21.2374 114.453 20.046C114.453 18.0819 116.284 17.0716 119.305 17.0877V16.9589C119.305 16.4438 119.086 15.5905 117.641 15.5905C116.835 15.5905 115.995 15.832 115.444 16.1701L115.041 14.8821C115.646 14.5279 116.7 14.1938 117.994 14.1938C120.611 14.1938 121.367 15.7837 121.367 17.5063" fill="white"/>
<path d="M126.353 18.9674C126.353 19.1284 126.369 19.2893 126.403 19.4342C126.621 20.2392 127.344 20.8188 128.23 20.8188C129.524 20.8188 130.314 19.8367 130.314 18.2469C130.314 16.8623 129.625 15.7354 128.247 15.7354C127.407 15.7354 126.638 16.315 126.42 17.1843C126.386 17.3292 126.353 17.5063 126.353 17.6995V18.9674ZM124.286 10.7646H126.353V15.4456H126.386C126.89 14.6889 127.776 14.1938 129.003 14.1938C131.002 14.1938 132.426 15.7837 132.41 18.1664C132.41 20.9798 130.549 22.3805 128.701 22.3805C127.642 22.3805 126.705 21.9941 126.117 21.0281H126.084L125.983 22.2034H124.219C124.252 21.6721 124.286 20.8027 124.286 20.0138" fill="white"/>
<path d="M134.84 22.2034H136.902V10.7646H134.84V22.2034Z" fill="white"/>
<path d="M144.943 17.458C144.96 16.7335 144.624 15.5422 143.25 15.5422C141.973 15.5422 141.436 16.653 141.352 17.458H144.943ZM141.352 18.8386C141.402 20.2553 142.561 20.8671 143.872 20.8671C144.825 20.8671 145.498 20.7222 146.136 20.5129L146.438 21.8612C145.733 22.1551 144.758 22.3603 143.586 22.3603C140.932 22.3603 139.369 20.8027 139.369 18.4079C139.369 16.2345 140.747 14.1938 143.368 14.1938C146.018 14.1938 146.892 16.2828 146.892 18.0054C146.892 18.3757 146.858 18.6655 146.825 18.8386" fill="white"/>
<path d="M157.145 20.9476C158.317 20.9476 159.14 19.8528 159.14 18.263C159.14 17.0394 158.569 15.6227 157.162 15.6227C155.7 15.6227 155.112 16.9911 155.112 18.2952C155.112 19.8045 155.902 20.9476 157.124 20.9476H157.145ZM157.078 22.3805C154.776 22.3805 152.982 20.8671 152.982 18.3435C152.982 15.7676 154.742 14.1938 157.212 14.1938C159.644 14.1938 161.274 15.832 161.274 18.2147C161.274 21.0925 159.157 22.3805 157.095 22.3805" fill="white"/>
<path d="M163.702 16.7013C163.702 15.7998 163.672 15.0431 163.639 14.3669H165.432L165.533 15.5422H165.583C165.953 14.9304 166.844 14.1938 168.205 14.1938C169.628 14.1938 171.107 15.0753 171.107 17.5546V22.1993H169.04V17.78C169.04 16.653 168.604 15.7998 167.482 15.7998C166.659 15.7998 166.088 16.3633 165.869 16.9589C165.802 17.1199 165.768 17.3614 165.768 17.5868V22.1993H163.702" fill="white"/>
<path d="M180.622 12.3586V14.3671H182.584V15.8482H180.622V19.2895C180.622 20.2555 180.891 20.7384 181.676 20.7384C182.046 20.7384 182.248 20.7223 182.483 20.6579L182.516 22.1512C182.214 22.2679 181.659 22.3605 181.021 22.3605C180.252 22.3605 179.631 22.119 179.244 21.7205C178.791 21.2697 178.589 20.5452 178.589 19.5149V15.8482H177.43V14.3671H178.589V12.906" fill="white"/>
<path d="M184.881 10.7646H186.947V15.4295H186.981C187.233 15.0592 187.586 14.7533 188.006 14.544C188.426 14.3226 188.909 14.1938 189.43 14.1938C190.824 14.1938 192.282 15.0753 192.282 17.5868V22.2034H190.22V17.7961C190.22 16.6691 189.783 15.7998 188.64 15.7998C187.838 15.7998 187.267 16.315 187.031 16.9106C186.964 17.0877 186.947 17.297 186.947 17.5063V22.2034H184.881" fill="white"/>
<path d="M200.271 17.458C200.288 16.7335 199.952 15.5422 198.574 15.5422C197.297 15.5422 196.764 16.653 196.68 17.458H200.271ZM196.68 18.8386C196.73 20.2553 197.885 20.8671 199.196 20.8671C200.154 20.8671 200.826 20.7222 201.46 20.5129L201.767 21.8612C201.061 22.1551 200.086 22.3603 198.91 22.3603C196.26 22.3603 194.697 20.8027 194.697 18.4079C194.697 16.2345 196.075 14.1938 198.692 14.1938C201.342 14.1938 202.216 16.2828 202.216 18.0054C202.216 18.3757 202.182 18.6655 202.149 18.8386" fill="white"/>
<path d="M52.2243 32.7162C52.1697 27.3511 56.8069 24.7389 57.0211 24.6182C54.3959 20.9475 50.3257 20.4484 48.8934 20.4082C45.4785 20.066 42.1643 22.3723 40.4254 22.3723C38.6486 22.3723 35.9645 20.4444 33.0789 20.5007C29.3573 20.5571 25.8794 22.6218 23.9724 25.8216C20.0408 32.354 22.9727 41.9493 26.7447 47.23C28.6349 49.8139 30.8359 52.7038 33.7215 52.5992C36.5442 52.4865 37.5985 50.8765 41.005 50.8765C44.3821 50.8765 45.3734 52.5992 48.3179 52.5348C51.3464 52.4865 53.2534 49.9387 55.0722 47.3266C57.2564 44.3642 58.1301 41.4462 58.1637 41.2973C58.0922 41.2731 52.2831 39.148 52.2243 32.7162Z" fill="white"/>
<path d="M46.6622 16.9388C48.1786 15.1195 49.2245 12.6402 48.9304 10.1287C46.7336 10.2253 43.9866 11.5857 42.403 13.3647C41.0043 14.9344 39.7484 17.5063 40.076 19.9212C42.5458 20.0983 45.0787 18.7298 46.6622 16.9388Z" fill="white"/>
<path d="M86.2894 42.9596L84.3404 37.1919C84.1346 36.6043 83.7482 35.2157 83.1769 33.0342H83.1097C82.8829 33.972 82.5133 35.3606 82.0134 37.1919L80.098 42.9596H86.2894ZM93.0269 52.1725H89.0911L86.9363 45.6844H79.4512L77.3972 52.1725H73.5664L80.9927 30.084H85.5711" fill="white"/>
<path d="M108.35 44.1431C108.35 42.5895 107.984 41.3136 107.253 40.3074C106.455 39.2609 105.384 38.7337 104.04 38.7337C103.129 38.7337 102.297 39.0275 101.562 39.6031C100.823 40.1867 100.335 40.9433 100.104 41.8852C99.9908 42.3198 99.9362 42.6781 99.9362 42.9598V45.6162C99.9362 46.7754 100.306 47.7534 101.045 48.5504C101.789 49.3513 102.75 49.7458 103.935 49.7458C105.33 49.7458 106.413 49.2346 107.182 48.2042C107.963 47.1779 108.35 45.8255 108.35 44.1431ZM112.113 44.0103C112.113 46.719 111.349 48.8643 109.82 50.434C108.45 51.8347 106.749 52.531 104.725 52.531C102.532 52.531 100.961 51.7743 100.003 50.269H99.9362V58.6609H96.2399V41.4867C96.2399 39.7842 96.1979 38.0374 96.1055 36.2423H99.3524L99.5582 38.7699H99.6296C100.86 36.8661 102.729 35.9163 105.237 35.9163C107.195 35.9163 108.837 36.6609 110.143 38.146C111.454 39.6352 112.113 41.5873 112.113 44.0103Z" fill="white"/>
<path d="M127.467 44.1431C127.467 42.5895 127.101 41.3136 126.37 40.3074C125.572 39.2609 124.501 38.7337 123.157 38.7337C122.245 38.7337 121.418 39.0275 120.679 39.6031C119.935 40.1867 119.456 40.9433 119.23 41.8852C119.112 42.3198 119.057 42.6781 119.057 42.9598V45.6162C119.057 46.7754 119.423 47.7534 120.162 48.5504C120.906 49.3513 121.867 49.7458 123.056 49.7458C124.446 49.7458 125.53 49.2346 126.303 48.2042C127.076 47.1779 127.467 45.8255 127.467 44.1431ZM131.226 44.0103C131.226 46.719 130.466 48.8643 128.937 50.434C127.567 51.8347 125.87 52.531 123.842 52.531C121.653 52.531 120.082 51.7743 119.12 50.269H119.057V58.6609H115.361V41.4867C115.361 39.7842 115.315 38.0374 115.227 36.2423H118.473L118.679 38.7699H118.751C119.977 36.8661 121.846 35.9163 124.354 35.9163C126.316 35.9163 127.95 36.6609 129.264 38.146C130.575 39.6352 131.226 41.5873 131.226 44.0103Z" fill="white"/>
<path d="M152.603 45.9782C152.603 47.8538 151.923 49.3833 150.554 50.5666C149.05 51.8545 146.962 52.4985 144.278 52.4985C141.796 52.4985 139.805 52.0397 138.297 51.122L139.154 48.1758C140.779 49.1136 142.556 49.5805 144.497 49.5805C145.887 49.5805 146.971 49.2826 147.748 48.6829C148.521 48.0792 148.907 47.2742 148.907 46.268C148.907 45.3745 148.592 44.6138 147.954 44.002C147.315 43.3902 146.252 42.8227 144.77 42.2954C140.733 40.8505 138.717 38.7374 138.717 35.9603C138.717 34.1451 139.423 32.6558 140.838 31.4967C142.249 30.3375 144.131 29.7539 146.479 29.7539C148.579 29.7539 150.323 30.1081 151.713 30.8044L150.789 33.6902C149.491 33.0141 148.021 32.6719 146.378 32.6719C145.076 32.6719 144.064 32.9778 143.337 33.5896C142.724 34.137 142.413 34.8051 142.413 35.59C142.413 36.4634 142.762 37.1838 143.472 37.7513C144.085 38.2746 145.202 38.8421 146.824 39.4579C148.806 40.2226 150.264 41.1161 151.2 42.1425C152.133 43.1688 152.603 44.4487 152.603 45.9782Z" fill="white"/>
<path d="M164.81 38.8988H160.74V46.6306C160.74 48.5987 161.459 49.5808 162.899 49.5808C163.555 49.5808 164.105 49.5285 164.537 49.4198L164.638 52.1044C163.916 52.37 162.954 52.4988 161.769 52.4988C160.312 52.4988 159.169 52.0722 158.346 51.2229C157.527 50.3697 157.115 48.9368 157.115 46.9284V38.8988H154.688V36.2423H157.115V33.3283L160.74 32.2778V36.2423H164.81" fill="white"/>
<path d="M179.348 44.1914C179.348 42.7223 179.016 41.4666 178.353 40.4121C177.584 39.1402 176.475 38.5043 175.039 38.5043C173.556 38.5043 172.426 39.1402 171.653 40.4121C170.989 41.4666 170.666 42.7465 170.666 44.2598C170.666 45.7289 170.989 46.9847 171.653 48.0352C172.451 49.307 173.568 49.943 175.009 49.943C176.416 49.943 177.525 49.299 178.323 48.003C179.008 46.9324 179.348 45.6605 179.348 44.1914ZM183.179 44.0787C183.179 46.5258 182.452 48.5343 180.99 50.108C179.462 51.726 177.433 52.531 174.904 52.531C172.459 52.531 170.519 51.7542 169.07 50.2046C167.625 48.655 166.902 46.6989 166.902 44.3403C166.902 41.8691 167.646 39.8486 169.141 38.2789C170.632 36.7011 172.644 35.9163 175.173 35.9163C177.613 35.9163 179.579 36.6931 181.058 38.2426C182.473 39.756 183.179 41.696 183.179 44.0787Z" fill="white"/>
<path d="M195.185 39.3575C194.82 39.2931 194.433 39.2609 194.022 39.2609C192.724 39.2609 191.716 39.7318 191.01 40.6696C190.397 41.5028 190.09 42.5493 190.09 43.8131V52.1728H186.398L186.427 41.2613C186.427 39.4219 186.381 37.7516 186.293 36.2423H189.51L189.645 39.2931H189.741C190.132 38.2467 190.75 37.4014 191.59 36.7695C192.413 36.202 193.303 35.9163 194.261 35.9163C194.601 35.9163 194.912 35.9404 195.185 35.9807" fill="white"/>
<path d="M208.176 42.5372C208.202 41.4907 207.962 40.5811 207.462 39.8163C206.824 38.8343 205.837 38.3392 204.518 38.3392C203.312 38.3392 202.329 38.8222 201.578 39.7841C200.964 40.5489 200.595 41.4665 200.49 42.5372H208.176ZM211.696 43.4548C211.696 44.0908 211.654 44.6221 211.566 45.0608H200.49C200.527 46.6345 201.065 47.8379 202.094 48.6671C203.027 49.4117 204.236 49.7779 205.719 49.7779C207.357 49.7779 208.853 49.5284 210.201 49.0253L210.781 51.4845C209.205 52.1365 207.349 52.4706 205.203 52.4706C202.628 52.4706 200.603 51.7421 199.133 50.2851C197.667 48.8361 196.928 46.884 196.928 44.4369C196.928 42.0341 197.608 40.0337 198.982 38.4398C200.414 36.7333 202.355 35.884 204.791 35.884C207.185 35.884 209.004 36.7333 210.235 38.4398C211.213 39.7922 211.696 41.4665 211.696 43.4548Z" fill="white"/>
</svg>
