<svg width="134" height="145" viewBox="0 0 134 145" fill="none" xmlns="http://www.w3.org/2000/svg">
<path d="M134 88.7798C134 125.562 88.6112 144.58 51.6081 144.58C14.605 144.58 0 104.862 0 68.0798C0 31.2977 29.9969 0.579834 67 0.579834C104.003 0.579834 134 51.9977 134 88.7798Z" fill="#CF1545"/>
<g clip-path="url(#clip0_1022_6078)">
<path d="M86.0003 60.4343C85.9166 61.4244 85.8328 62.4023 85.761 63.3925C85.5815 65.8616 85.414 68.3186 85.2345 70.7878C85.1028 72.658 84.9832 74.5282 84.8515 76.3984C84.7678 77.6208 84.684 78.8309 84.5763 80.0533C84.5165 80.6889 84.0498 81.1779 83.4155 81.2757C83.1164 81.3246 82.8172 81.3368 82.518 81.3368C72.2745 81.3368 62.031 81.349 51.7875 81.3368C50.902 81.3368 50.1002 81.5202 49.4421 82.168C48.5924 83.0114 48.3292 84.2949 48.76 85.4195C49.1908 86.5319 50.2079 87.2775 51.4046 87.2775C56.4426 87.2897 61.4806 87.2897 66.5305 87.2897C71.9395 87.2897 77.3604 87.2897 82.7693 87.2897C82.9967 87.2897 83.2241 87.2897 83.4395 87.3386C84.0139 87.4609 84.4088 87.8153 84.5524 88.4021C84.684 88.9888 84.5284 89.5144 84.0378 89.8567C83.7745 90.0401 83.8104 90.1745 83.9421 90.419C85.773 94.0616 83.6429 98.3155 79.67 98.9511C76.6543 99.4278 73.6387 97.1053 73.2199 94.0127C73.0643 92.8026 73.2558 91.6658 73.7584 90.5901C73.902 90.2723 73.8781 90.1745 73.5071 90.1745C69.6299 90.1867 65.7646 90.1867 61.8874 90.1745C61.5284 90.1745 61.4925 90.2479 61.6481 90.5779C63.3474 94.2328 61.2412 98.3033 57.3281 98.9633C54.3484 99.4645 51.3089 97.1542 50.8661 94.0983C50.6986 92.8759 50.8661 91.7269 51.3807 90.6268C51.5362 90.2967 51.5243 90.2112 51.1294 90.1745C47.9582 89.9178 45.6247 87.3264 45.7683 84.0994C45.876 81.6057 47.1684 79.87 49.4181 78.9043C49.8609 78.7209 49.9686 78.5254 49.9207 78.0364C49.7173 76.0195 49.5857 73.9904 49.4301 71.9735C49.2626 69.9688 49.095 67.9641 48.9275 65.9594C48.76 63.9547 48.6044 61.9501 48.4488 59.9332C48.3292 58.3808 48.1975 56.8283 48.0779 55.2759C48.0539 54.897 47.8744 54.7992 47.5274 54.7992C45.5888 54.8114 43.6382 54.8114 41.6996 54.8114C40.7662 54.8114 40.2397 54.4814 40.0602 53.7847C39.8687 53.0635 40.1559 52.4767 40.9457 52C43.8776 52 46.8094 52 49.7412 52C50.4592 52.2934 50.7105 52.8801 50.7584 53.6257C50.8302 54.8603 50.9499 56.0827 51.0456 57.3173C51.0695 57.6718 51.1892 57.8429 51.5961 57.8429C56.2272 57.8307 60.8583 57.8307 65.5014 57.8429C65.8843 57.8429 65.992 57.6962 65.98 57.3295C65.9561 56.5105 65.9561 55.6793 65.98 54.8603C66.004 53.9313 66.722 53.3079 67.5836 53.4424C68.2777 53.5524 68.7563 54.1514 68.7683 54.9948C68.7922 55.716 68.7683 56.425 68.7803 57.1462C68.7803 57.8307 68.7803 57.8307 69.4384 57.8307C74.4046 57.8307 79.3588 57.8429 84.325 57.8185C85.0909 57.8185 85.6653 58.0629 86.0123 58.7719C86.0003 59.3342 86.0003 59.8843 86.0003 60.4343ZM68.8281 68.9176C68.9957 68.8931 69.0675 68.7464 69.1752 68.6486C69.7017 68.123 70.2043 67.573 70.7428 67.0718C71.3052 66.5339 72.119 66.5706 72.6455 67.0962C73.196 67.6463 73.2319 68.5019 72.6814 69.0765C71.2334 70.58 69.7735 72.0713 68.3016 73.5503C67.7511 74.1004 66.9374 74.1126 66.3989 73.5625C64.927 72.0835 63.467 70.5922 62.0191 69.0887C61.4925 68.5386 61.5165 67.6585 62.0071 67.1329C62.5217 66.5828 63.3593 66.5217 63.9457 67.0596C64.4962 67.5607 64.9868 68.1108 65.5133 68.6242C65.621 68.7342 65.7048 68.8931 65.8963 68.9176C65.992 68.7709 65.9441 68.612 65.9441 68.4653C65.9441 66.0939 65.9441 63.7347 65.9441 61.3633C65.9441 60.7033 65.9441 60.7033 65.3099 60.7033C60.978 60.7033 56.6341 60.7033 52.3021 60.7033C51.273 60.7033 51.2969 60.7033 51.3926 61.7423C51.5482 63.4902 51.6918 65.2382 51.8234 66.9862C51.9551 68.5386 52.0747 70.091 52.1944 71.6434C52.3619 73.6848 52.5414 75.7139 52.709 77.7553C52.7688 78.452 52.7449 78.4642 53.427 78.4642C62.7131 78.4642 71.9993 78.4642 81.2855 78.4642C81.3932 78.4642 81.5009 78.4642 81.5966 78.4642C81.824 78.4765 81.9077 78.3542 81.9197 78.1342C82.0633 75.9462 82.2189 73.7459 82.3744 71.5579C82.4702 70.1155 82.5659 68.6609 82.6736 67.2185C82.8172 65.2505 82.9608 63.2947 83.0924 61.3267C83.1283 60.7155 83.1044 60.7033 82.518 60.7033C78.1382 60.7033 73.7584 60.7033 69.3666 60.7033C68.7683 60.7033 68.7563 60.7155 68.7563 61.3144C68.7563 63.698 68.7563 66.0817 68.7563 68.4653C68.7683 68.6242 68.7204 68.7831 68.8281 68.9176ZM75.9603 93.1693C75.9603 94.8073 77.2646 96.1274 78.8801 96.1519C80.4598 96.1763 81.812 94.7706 81.8 93.1326C81.7881 91.4824 80.4957 90.1745 78.8801 90.1745C77.2527 90.1623 75.9603 91.4947 75.9603 93.1693ZM59.4343 93.206C59.4582 91.5191 58.2137 90.199 56.6101 90.1623C54.9587 90.1378 53.6304 91.4336 53.6184 93.0837C53.6065 94.7828 54.8989 96.1397 56.5383 96.1397C58.106 96.1519 59.4103 94.8195 59.4343 93.206Z" fill="white"/>
</g>
<defs>
<clipPath id="clip0_1022_6078">
<rect width="46" height="47" fill="white" transform="translate(40 52)"/>
</clipPath>
</defs>
</svg>
