<svg width="218" height="195" viewBox="0 0 218 195" fill="none" xmlns="http://www.w3.org/2000/svg">
<g clip-path="url(#clip0_701_5960)">
<path d="M55.3491 121.473H44.5V41.8596C44.5 19.039 62.9245 0.472656 85.5708 0.472656C108.217 0.472656 126.642 19.039 126.642 41.8596V50.2017H115.792V41.8596C115.797 25.0662 102.236 11.4052 85.5708 11.4052C68.9057 11.4052 55.3491 25.0662 55.3491 41.8596V121.473Z" fill="#CF1545"/>
<path d="M72.9386 121.473H62.5613V43.0766C62.5613 30.2902 72.8867 19.8853 85.5754 19.8853H86.7782C99.4669 19.8853 109.792 30.2902 109.792 43.0766H99.415C99.415 36.056 93.7452 30.3425 86.7782 30.3425H85.5754C78.6084 30.3425 72.9386 36.056 72.9386 43.0766V121.473Z" fill="#CF1545"/>
<path d="M130.486 121.335H67.75V110.878H130.491C136.759 110.878 142.745 109.257 147.802 106.196C157.396 100.387 163.123 90.5429 163.123 79.8622V79.1445C163.123 63.2209 150.429 50.7483 134.226 50.7483V40.291C144.731 40.291 154.575 44.26 161.943 51.4708C169.396 58.7623 173.5 68.5922 173.5 79.1492V79.867C173.5 94.2552 165.891 107.45 153.146 115.165C146.476 119.196 138.637 121.335 130.486 121.335Z" fill="#CF1545"/>
<path d="M81.934 75.0755V87.7145C81.934 87.7145 80.7076 88.5083 87.1085 90.9848C93.5095 93.4613 108.118 92.8196 109.123 92.4868C111.321 91.7596 113.297 89.7014 110.264 87.3628C110.264 87.3628 115.236 85.5613 111.326 82.0486C111.326 82.0486 117.047 80.0094 112.245 75.7172C112.245 75.7172 114.675 74.8045 114.184 72.4897C113.877 71.0399 112.557 70.037 111.085 70.037H105.085C105.085 70.037 106.137 65.0888 100.175 64.7371C100.175 64.7371 96.6651 64.1619 94.2123 65.8208C91.7548 67.475 82.934 73.4736 81.934 75.0755Z" fill="#CF1545"/>
<path d="M125.302 69.253C125.302 69.253 120.137 69.1531 119.58 71.7057C119.024 74.2582 119.58 74.9522 120.401 75.7175L120.665 76.1833C120.665 76.1833 119.316 77.576 119.613 79.1683C119.91 80.7607 120.698 81.0887 121.717 81.5545C121.717 81.5545 120.467 82.6478 120.533 84.1403C120.599 85.6328 121.354 86.4932 122.802 87.0541C122.802 87.0541 123.198 87.2537 123.887 87.287C123.887 87.287 122.377 87.1872 122.325 89.5401C122.274 91.8929 123.986 92.4586 125.302 92.5869C126.618 92.72 128.425 92.8531 129.316 92.5869C130.203 92.3207 132.868 89.041 128.627 87.3821C128.627 87.3821 132.708 85.4617 130.241 82.6097C130.241 82.6097 129.42 81.6828 128.071 81.2836C128.071 81.2836 130.241 80.4232 130.736 79.6912C130.736 79.6912 127.448 79.9241 126.495 77.6711C125.542 75.418 125.123 72.7657 125.84 69.253H125.302Z" fill="#CF1545"/>
<path d="M131.34 64.666C131.34 64.666 128.613 65.0748 128.132 68.3451C127.651 71.6153 128.132 75.6794 128.132 75.6794C128.132 75.6794 128.92 78.3317 131.288 76.1642C133.656 74.0015 133.259 70.4223 133.259 70.4223L135.627 70.9356C135.627 70.9356 136.373 72.7656 137.821 73.6497C137.821 73.6497 136.618 79.2872 139.618 83.0042C139.877 83.3275 140.179 83.6032 140.495 83.8693C140.674 84.0167 140.873 84.2306 140.844 84.4302C140.802 84.782 140.495 84.9151 139.571 84.4302C138.651 83.9454 134.439 80.0572 134.486 77.0531C134.528 74.049 134.005 74.2677 134.005 74.2677C134.005 74.2677 134.882 77.0959 132.604 78.1131C132.604 78.1131 133.887 80.3234 131.505 81.2075C131.505 81.2075 135.231 84.3019 131.505 87.1301C131.505 87.1301 135.231 89.9345 131.722 92.739C131.722 92.739 142.16 93.49 149.698 89.6494C149.698 89.6494 150.519 89.1408 151.104 85.6708C151.665 82.315 151.108 75.0662 151.108 75.0662C151.108 75.0662 149.788 73.3408 145.184 70.0705C140.58 66.8002 137.906 65.1651 137.906 65.1651C137.906 65.1651 137.533 64.5662 134.377 64.666H131.34Z" fill="#CF1545"/>
<path d="M114.028 66.962L113.816 67.0428C113.486 67.1664 113.118 66.9953 113 66.6626L109.042 57.6551C108.92 57.3223 109.09 56.9516 109.42 56.8327L110.571 56.4049C110.901 56.2814 111.269 56.4525 111.387 56.7852L114.406 66.1445C114.524 66.4724 114.358 66.8385 114.028 66.962Z" fill="#CF1545"/>
<path d="M116.359 66.5009H116.132C115.778 66.5009 115.495 66.2157 115.495 65.8592L114.877 56.0294C114.877 55.6729 115.16 55.3877 115.514 55.3877H116.741C117.09 55.3877 117.377 55.6729 117.377 56.0294L117 65.864C116.995 66.2157 116.712 66.5009 116.359 66.5009Z" fill="#CF1545"/>
<path d="M118.656 67.1185L118.439 67.0472C118.104 66.9331 117.929 66.5719 118.042 66.2344L120.599 56.723C120.712 56.3856 121.076 56.2097 121.406 56.3238L122.566 56.7183C122.901 56.8324 123.076 57.1984 122.962 57.5311L119.462 66.7192C119.349 67.052 118.986 67.2326 118.656 67.1185Z" fill="#CF1545"/>
<path d="M115.467 94.5832L115.259 94.5072C114.939 94.3884 114.585 94.5547 114.467 94.8732L110.637 103.6C110.519 103.923 110.684 104.28 111 104.399L112.113 104.812C112.434 104.931 112.788 104.765 112.906 104.446L115.83 95.3818C115.948 95.0586 115.788 94.7021 115.467 94.5832Z" fill="#CF1545"/>
<path d="M117.726 95.0303H117.505C117.165 95.0303 116.887 95.306 116.887 95.653L116.288 105.174C116.288 105.516 116.561 105.797 116.906 105.797H118.094C118.434 105.797 118.712 105.516 118.712 105.174L118.344 95.653C118.344 95.306 118.071 95.0303 117.726 95.0303Z" fill="#CF1545"/>
<path d="M119.948 94.4309L119.741 94.5022C119.42 94.6116 119.245 94.9633 119.354 95.2913L121.83 104.498C121.939 104.822 122.288 104.998 122.613 104.888L123.736 104.503C124.057 104.394 124.231 104.042 124.123 103.714L120.731 94.8159C120.623 94.4927 120.274 94.3216 119.948 94.4309Z" fill="#CF1545"/>
</g>
<path d="M56.7108 167.986C58.6896 162.668 65.6441 161.689 69.8181 164.854C69.1882 165.491 67.9411 166.765 67.3112 167.402C64.4034 166.404 59.2241 167.494 61.1011 171.755C62.5009 173.981 59.6504 174.927 58.4796 176.024C57.1625 173.607 55.4382 170.836 56.7108 167.986Z" fill="#FDFDFE"/>
<path d="M114.147 161.801C118.57 171.565 122.769 181.434 127.051 191.258C125.931 191.258 123.673 191.284 122.553 191.297C119.702 184.652 117.062 177.915 114.109 171.322C111.297 178.033 108.3 184.665 105.329 191.297C104.272 191.284 102.141 191.258 101.072 191.245C105.201 181.316 109.974 171.709 114.147 161.801Z" fill="#FDFDFE"/>
<path d="M137.48 161.473C140.706 168.505 143.569 175.715 146.744 182.774C150.135 175.892 152.744 168.623 156.422 161.886C158.031 171.69 159.775 181.461 161.346 191.264C160.316 191.264 158.248 191.264 157.211 191.251C156.339 185.762 155.588 180.253 154.526 174.789C151.98 180.706 149.384 186.622 146.648 192.473C143.55 185.177 140.413 177.908 137.302 170.626C135.832 167.744 137.142 164.474 137.48 161.473Z" fill="#FDFDFE"/>
<path d="M2.5 167.507C2.51273 166.181 2.52545 164.868 2.53818 163.541C7.42478 163.594 14.0675 162.615 16.8544 167.908C19.1323 172.564 16.4281 177.935 11.9296 179.741C14.602 183.615 17.3507 187.436 19.9722 191.357C18.0824 190.943 15.4101 192.085 14.163 190.043C11.5797 186.622 9.43542 182.866 6.85213 179.432C6.48946 183.372 6.47673 187.325 6.54672 191.278C5.5414 191.278 3.53713 191.265 2.53818 191.265C2.52545 186.314 2.52545 181.369 2.52545 176.418C6.29221 176.129 13.4121 177.547 13.5776 171.749C13.3485 166.076 6.20313 167.882 2.5 167.507Z" fill="#FDFDFE"/>
<path d="M30.9797 164.323C38.0106 161.046 47.4593 164.493 49.7944 172.386C52.6576 179.944 48.4455 189.393 40.6447 191.324C33.283 193.602 24.6169 188.723 23.0644 180.844C21.3401 174.284 24.9669 166.923 30.9797 164.323ZM32.2141 168.144C25.0687 171.5 25.3232 183.451 32.3795 186.793C38.7932 190.575 47.3129 184.284 46.6448 176.897C47.0075 169.523 38.2587 164.671 32.2141 168.144Z" fill="#FDFDFE"/>
<path d="M93.2013 163.567C94.2193 163.567 96.249 163.567 97.2607 163.567C97.2607 172.8 97.2734 182.032 97.248 191.264C96.2427 191.264 94.2129 191.264 93.2013 191.264C93.1885 186.983 93.1885 182.708 93.2013 178.414C89.3836 178.414 85.5659 178.414 81.7483 178.401C81.7356 182.682 81.7101 186.957 81.6592 191.238C80.3612 191.251 79.0632 191.264 77.7652 191.278C77.7652 185.67 77.7906 180.082 77.7143 174.474C82.8681 174.198 88.0347 174.619 93.1885 174.317C93.2013 170.731 93.1758 167.14 93.2013 163.567Z" fill="#FDFDFE"/>
<path d="M167.06 163.501C170.903 163.751 175.58 162.681 178.577 165.879C181.186 168.715 180.696 173.134 178.901 176.293C182.732 178.67 184.456 184.409 181.408 188.152C177.915 192.532 171.858 191.107 167.054 191.271C167.028 185.978 167.028 180.686 167.054 175.38C168.975 175.268 170.992 175.479 172.927 175.255C175.23 174.986 176.865 172.826 176.515 170.462C176.496 170.344 176.477 170.232 176.458 170.114C176.274 169.129 175.605 168.295 174.696 167.947C172.29 167.041 169.554 167.349 167.035 167.146C167.048 166.246 167.06 164.427 167.06 163.501ZM171.024 178.729C170.999 181.631 170.999 184.527 170.999 187.429C173.907 187.055 178.889 187.574 178.914 183.253C179.118 178.847 174.015 178.952 171.024 178.729Z" fill="#FDFDFE"/>
<path d="M196.081 164.23C201.648 161.926 208.972 163.206 212.599 168.446C217.415 174.789 216.187 185.414 209.245 189.603C202.577 194.14 192.397 191.501 189.005 183.91C185.315 176.831 188.795 167.107 196.081 164.23ZM197.29 168.052C190.297 171.171 189.903 182.498 196.482 186.346C202.895 191.002 212.21 184.645 211.568 176.864C211.816 169.615 203.334 164.775 197.29 168.052Z" fill="#FDFDFE"/>
<path d="M63.6144 177.987C64.7088 176.897 65.8095 175.814 66.9167 174.724C71.7651 177.14 74.2275 183.733 70.7598 188.428C66.8912 193.615 58.8869 192.197 55.54 187.101C56.6217 185.762 57.7479 184.448 58.8423 183.122C59.3132 183.792 59.6886 184.567 60.1149 185.296C61.2029 187.174 63.4172 188.053 65.4341 187.357C65.4532 187.351 65.4723 187.344 65.4914 187.338C67.3048 186.701 68.4565 184.829 68.1192 182.886C67.7184 180.614 66.115 178.749 63.6144 177.987Z" fill="#FDFDFE"/>
<path d="M131.9 191.343C132.943 185.735 133.967 180.121 135.113 174.54C136.035 176.713 136.977 178.88 137.9 181.053C137.244 184.369 136.78 187.738 136.239 191.08C135.151 191.146 132.981 191.277 131.9 191.343Z" fill="#FDFDFE"/>
<defs>
<clipPath id="clip0_701_5960">
<rect width="129" height="121" fill="white" transform="translate(44.5 0.472656)"/>
</clipPath>
</defs>
</svg>
