<svg width="102" height="91" viewBox="0 0 102 91" fill="none" xmlns="http://www.w3.org/2000/svg">
<g clip-path="url(#clip0_684_1548)">
<path d="M26.0291 56.634H20.9795V19.7001C20.9795 9.11327 29.555 0.5 40.0954 0.5C50.6358 0.5 59.2113 9.11327 59.2113 19.7001V23.5702H54.1617V19.7001C54.1639 11.9094 47.8519 5.57182 40.0954 5.57182C32.3388 5.57182 26.0291 11.9094 26.0291 19.7001V56.634Z" fill="#CF1545"/>
<path d="M34.2158 56.6341H29.3857V20.2647C29.3857 14.3329 34.1916 9.50586 40.0974 9.50586H40.6572C46.563 9.50586 51.3689 14.3329 51.3689 20.2647H46.5389C46.5389 17.0077 43.8999 14.3572 40.6572 14.3572H40.0974C36.8547 14.3572 34.2158 17.0077 34.2158 20.2647V56.6341Z" fill="#CF1545"/>
<path d="M61.0004 56.57H31.8008V51.7187H61.0026C63.9204 51.7187 66.7064 50.9668 69.0599 49.5467C73.5255 46.852 76.1908 42.2851 76.1908 37.3302V36.9972C76.1908 29.61 70.2828 23.8237 62.7414 23.8237V18.9724C67.6307 18.9724 72.2126 20.8137 75.6419 24.1589C79.1108 27.5416 81.0208 32.1018 81.0208 36.9994V37.3324C81.0208 44.0074 77.4795 50.1288 71.5474 53.7078C68.443 55.5777 64.7942 56.57 61.0004 56.57Z" fill="#CF1545"/>
<path d="M38.4022 35.1097V40.9732C38.4022 40.9732 37.8314 41.3414 40.8106 42.4903C43.7899 43.6392 50.5892 43.3415 51.0568 43.1871C52.0799 42.8498 52.9998 41.8949 51.5881 40.81C51.5881 40.81 53.9022 39.9743 52.0821 38.3447C52.0821 38.3447 54.7452 37.3987 52.5102 35.4074C52.5102 35.4074 53.6409 34.984 53.4126 33.9101C53.2699 33.2376 52.6551 32.7723 51.9702 32.7723H49.1775C49.1775 32.7723 49.6671 30.4767 46.8921 30.3135C46.8921 30.3135 45.2586 30.0467 44.117 30.8163C42.9732 31.5837 38.8676 34.3666 38.4022 35.1097Z" fill="#CF1545"/>
<path d="M58.5878 32.4084C58.5878 32.4084 56.1838 32.3621 55.9247 33.5463C55.6657 34.7305 55.9247 35.0524 56.3067 35.4074L56.4297 35.6235C56.4297 35.6235 55.8018 36.2696 55.9401 37.0084C56.0784 37.7471 56.4451 37.8992 56.9193 38.1153C56.9193 38.1153 56.3375 38.6225 56.3682 39.3149C56.399 40.0074 56.7502 40.4065 57.4242 40.6667C57.4242 40.6667 57.6087 40.7593 57.9292 40.7747C57.9292 40.7747 57.2266 40.7284 57.2025 41.82C57.1783 42.9115 57.9753 43.1739 58.5878 43.2335C59.2004 43.2952 60.0412 43.357 60.4562 43.2335C60.8689 43.11 62.1094 41.5884 60.1356 40.8188C60.1356 40.8188 62.0347 39.928 60.8865 38.6049C60.8865 38.6049 60.5045 38.1749 59.8766 37.9897C59.8766 37.9897 60.8865 37.5905 61.117 37.2509C61.117 37.2509 59.5868 37.359 59.1433 36.3137C58.6998 35.2685 58.5044 34.038 58.8381 32.4084H58.5878Z" fill="#CF1545"/>
<path d="M61.3981 30.2804C61.3981 30.2804 60.1291 30.47 59.9052 31.9871C59.6813 33.5043 59.9052 35.3897 59.9052 35.3897C59.9052 35.3897 60.2718 36.6201 61.374 35.6146C62.4761 34.6112 62.2917 32.9508 62.2917 32.9508L63.3938 33.1889C63.3938 33.1889 63.7407 34.0379 64.4147 34.4481C64.4147 34.4481 63.8548 37.0634 65.2511 38.7878C65.3719 38.9377 65.5124 39.0656 65.6595 39.1891C65.7429 39.2575 65.8351 39.3567 65.822 39.4493C65.8022 39.6125 65.6595 39.6742 65.2292 39.4493C64.8011 39.2244 62.8405 37.4206 62.8625 36.0269C62.8822 34.6333 62.6385 34.7347 62.6385 34.7347C62.6385 34.7347 63.0469 36.0468 61.9865 36.5187C61.9865 36.5187 62.5837 37.5441 61.4749 37.9542C61.4749 37.9542 63.2094 39.3898 61.4749 40.7018C61.4749 40.7018 63.2094 42.0029 61.5759 43.3039C61.5759 43.3039 66.4345 43.6523 69.9428 41.8706C69.9428 41.8706 70.3249 41.6346 70.5971 40.0249C70.8583 38.468 70.5993 35.1052 70.5993 35.1052C70.5993 35.1052 69.9846 34.3047 67.8418 32.7876C65.699 31.2705 64.4542 30.5119 64.4542 30.5119C64.4542 30.5119 64.2807 30.234 62.812 30.2804H61.3981Z" fill="#CF1545"/>
<path d="M53.3401 31.3455L53.2413 31.383C53.0877 31.4403 52.9164 31.3609 52.8615 31.2065L51.0195 27.0278C50.9625 26.8734 51.0415 26.7014 51.1952 26.6463L51.7309 26.4478C51.8846 26.3905 52.0558 26.4699 52.1107 26.6243L53.5158 30.9662C53.5707 31.1183 53.4938 31.2881 53.3401 31.3455Z" fill="#CF1545"/>
<path d="M54.4247 31.1317H54.3193C54.1547 31.1317 54.023 30.9994 54.023 30.834L53.7354 26.2738C53.7354 26.1084 53.8671 25.9761 54.0317 25.9761H54.6026C54.765 25.9761 54.8989 26.1084 54.8989 26.2738L54.7233 30.8362C54.7211 30.9994 54.5894 31.1317 54.4247 31.1317Z" fill="#CF1545"/>
<path d="M55.4948 31.4183L55.3938 31.3852C55.2379 31.3323 55.1567 31.1647 55.2094 31.0081L56.3993 26.5956C56.452 26.4391 56.6211 26.3575 56.7748 26.4104L57.3148 26.5934C57.4707 26.6463 57.5519 26.8161 57.4993 26.9705L55.8702 31.233C55.8175 31.3874 55.6485 31.4712 55.4948 31.4183Z" fill="#CF1545"/>
<path d="M54.01 44.1596L53.9134 44.1243C53.7642 44.0691 53.5995 44.1463 53.5446 44.2941L51.7619 48.3427C51.707 48.4927 51.7838 48.658 51.9309 48.7132L52.4491 48.905C52.5984 48.9601 52.763 48.883 52.8179 48.7352L54.1791 44.53C54.234 44.3801 54.1593 44.2147 54.01 44.1596Z" fill="#CF1545"/>
<path d="M55.0622 44.3669H54.959C54.8009 44.3669 54.6714 44.4948 54.6714 44.6558L54.3926 49.0727C54.3926 49.2315 54.5199 49.3616 54.6802 49.3616H55.2334C55.3915 49.3616 55.5211 49.2315 55.5211 49.0727L55.3498 44.6558C55.3498 44.4948 55.2225 44.3669 55.0622 44.3669Z" fill="#CF1545"/>
<path d="M56.0963 44.089L55.9997 44.1221C55.8504 44.1728 55.7692 44.336 55.8197 44.4882L56.9723 48.7595C57.0228 48.9095 57.1853 48.9911 57.3367 48.9403L57.8593 48.7617C58.0086 48.711 58.0898 48.5478 58.0393 48.3957L56.4608 44.2676C56.4103 44.1177 56.2478 44.0383 56.0963 44.089Z" fill="#CF1545"/>
</g>
<path d="M26.6625 78.2126C27.5836 75.7451 30.8205 75.2912 32.7632 76.7595C32.47 77.055 31.8896 77.646 31.5964 77.9415C30.243 77.4784 27.8323 77.9841 28.706 79.9611C29.3575 80.9938 28.0308 81.4325 27.4858 81.9412C26.8728 80.8202 26.0703 79.5347 26.6625 78.2126Z" fill="#FDFDFE"/>
<path d="M53.3954 75.343C55.4536 79.8728 57.4082 84.4514 59.4013 89.0086C58.88 89.0086 57.8287 89.0208 57.3075 89.0269C55.9808 85.944 54.7518 82.8186 53.3776 79.7601C52.0687 82.8734 50.6738 85.9501 49.2908 89.0269C48.7992 89.0208 47.8071 89.0086 47.3096 89.0025C49.2316 84.3965 51.4527 79.9398 53.3954 75.343Z" fill="#FDFDFE"/>
<path d="M64.2551 75.1907C65.7566 78.4532 67.0892 81.798 68.567 85.0728C70.1455 81.8803 71.3597 78.5081 73.0714 75.3826C73.8206 79.9307 74.6321 84.4635 75.3636 89.0116C74.8838 89.0116 73.9213 89.0116 73.4386 89.0055C73.0329 86.4588 72.6834 83.903 72.1889 81.3685C71.0043 84.1132 69.796 86.8579 68.5226 89.5721C67.0803 86.1877 65.6203 82.8155 64.1722 79.4372C63.4881 78.0999 64.0981 76.5828 64.2551 75.1907Z" fill="#FDFDFE"/>
<path d="M1.43066 77.9903C1.43659 77.3749 1.44251 76.7657 1.44843 76.1503C3.72284 76.1747 6.81462 75.7208 8.11175 78.1761C9.17195 80.3359 7.91333 82.8277 5.81957 83.6655C7.06338 85.4628 8.34274 87.2357 9.56287 89.0543C8.68331 88.8624 7.43949 89.3925 6.85904 88.4451C5.65669 86.858 4.65867 85.1155 3.45631 83.5223C3.28751 85.3501 3.28158 87.1839 3.31416 89.0178C2.84625 89.0178 1.91338 89.0117 1.44843 89.0117C1.44251 86.7148 1.44251 84.4209 1.44251 82.1241C3.1957 81.99 6.50959 82.648 6.58659 79.9582C6.47997 77.3262 3.15424 78.1639 1.43066 77.9903Z" fill="#FDFDFE"/>
<path d="M14.686 76.5128C17.9584 74.9927 22.3562 76.592 23.4431 80.2536C24.7757 83.7599 22.8152 88.1435 19.1845 89.0391C15.758 90.0961 11.7245 87.8327 11.0019 84.1772C10.1994 81.134 11.8874 77.7191 14.686 76.5128ZM15.2605 78.2857C11.9348 79.8424 12.0532 85.3866 15.3375 86.9371C18.3227 88.6918 22.2881 85.7735 21.9771 82.3464C22.1459 78.9254 18.0739 76.6743 15.2605 78.2857Z" fill="#FDFDFE"/>
<path d="M43.6467 76.1624C44.1205 76.1624 45.0652 76.1624 45.5361 76.1624C45.5361 80.4454 45.542 84.7285 45.5302 89.0115C45.0623 89.0115 44.1176 89.0115 43.6467 89.0115C43.6408 87.0254 43.6408 85.0422 43.6467 83.05C41.8698 83.05 40.0929 83.05 38.3161 83.0439C38.3101 85.03 38.2983 87.0132 38.2746 88.9993C37.6705 89.0054 37.0663 89.0115 36.4622 89.0176C36.4622 86.4161 36.474 83.8237 36.4385 81.2222C38.8373 81.0943 41.242 81.2892 43.6408 81.1491C43.6467 79.4858 43.6349 77.8195 43.6467 76.1624Z" fill="#FDFDFE"/>
<path d="M78.0236 76.1321C79.8123 76.2478 81.989 75.7513 83.3838 77.2348C84.598 78.5508 84.37 80.601 83.5349 82.0662C85.3177 83.169 86.1202 85.8314 84.7017 87.5678C83.0758 89.5996 80.2565 88.9386 78.0206 89.0148C78.0088 86.5595 78.0088 84.1042 78.0206 81.6428C78.915 81.591 79.8538 81.6885 80.754 81.5849C81.8261 81.46 82.5872 80.4578 82.4243 79.3611C82.4154 79.3063 82.4065 79.2545 82.3977 79.1997C82.3118 78.7427 82.0008 78.3559 81.5773 78.1944C80.4579 77.774 79.1845 77.9172 78.0117 77.8228C78.0176 77.4054 78.0236 76.5616 78.0236 76.1321ZM79.8686 83.1964C79.8567 84.5428 79.8567 85.8862 79.8567 87.2327C81.2101 87.0591 83.5289 87.2997 83.5408 85.2953C83.6356 83.2512 81.2604 83.3 79.8686 83.1964Z" fill="#FDFDFE"/>
<path d="M91.5305 76.4701C94.1218 75.4009 97.5305 75.9949 99.2185 78.4258C101.46 81.3685 100.889 86.2974 97.6578 88.2409C94.5542 90.3459 89.8158 89.1213 88.2374 85.5998C86.5197 82.3159 88.1396 77.8044 91.5305 76.4701ZM92.0932 78.243C88.8385 79.69 88.6549 84.9448 91.7171 86.7299C94.7022 88.8898 99.0378 85.941 98.7387 82.3311C98.8542 78.968 94.9066 76.7229 92.0932 78.243Z" fill="#FDFDFE"/>
<path d="M29.8753 82.8521C30.3847 82.3465 30.897 81.8438 31.4123 81.3381C33.6689 82.4592 34.815 85.5176 33.201 87.6957C31.4005 90.1023 27.6749 89.4443 26.1172 87.0804C26.6206 86.4589 27.1448 85.8497 27.6542 85.2343C27.8733 85.545 28.0481 85.9045 28.2465 86.2426C28.7529 87.1139 29.7835 87.5221 30.7223 87.1992C30.7312 87.1961 30.74 87.1931 30.7489 87.19C31.5929 86.8945 32.129 86.0263 31.972 85.1246C31.7854 84.0706 31.0392 83.2055 29.8753 82.8521Z" fill="#FDFDFE"/>
<path d="M61.6582 89.0481C62.1439 86.4466 62.6207 83.842 63.1538 81.2527C63.5832 82.261 64.0215 83.2663 64.4509 84.2746C64.1459 85.813 63.9297 87.3757 63.6779 88.9262C63.1715 88.9567 62.1617 89.0176 61.6582 89.0481Z" fill="#FDFDFE"/>
<defs>
<clipPath id="clip0_684_1548">
<rect width="60.0415" height="56.134" fill="white" transform="translate(20.9795 0.5)"/>
</clipPath>
</defs>
</svg>
