<svg width="642" height="642" viewBox="0 0 642 642" fill="none" xmlns="http://www.w3.org/2000/svg">
<circle cx="321" cy="346.88" r="294.5" stroke="#ADAFBB" stroke-dasharray="10 10"/>
<circle cx="321" cy="346.881" r="227.7" fill="#141415"/>
<g clip-path="url(#clip0_701_6108)">
<path d="M261.382 373.8H249.213V284.5C249.213 258.903 269.879 238.077 295.281 238.077C320.683 238.077 341.349 258.903 341.349 284.5V293.857H329.18V284.5C329.185 265.663 313.974 250.34 295.281 250.34C276.588 250.34 261.382 265.663 261.382 284.5V373.8Z" fill="#CF1545"/>
<path d="M281.112 373.8H269.472V285.865C269.472 271.523 281.054 259.852 295.286 259.852H296.635C310.868 259.852 322.45 271.523 322.45 285.865H310.81C310.81 277.99 304.45 271.581 296.635 271.581H295.286C287.471 271.581 281.112 277.99 281.112 285.865V373.8Z" fill="#CF1545"/>
<path d="M345.661 373.645H275.292V361.915H345.666C352.698 361.915 359.412 360.097 365.084 356.664C375.846 350.148 382.269 339.107 382.269 327.126V326.321C382.269 308.46 368.031 294.47 349.857 294.47V282.74C361.639 282.74 372.682 287.192 380.946 295.28C389.306 303.459 393.909 314.485 393.909 326.327V327.132C393.909 343.271 385.374 358.071 371.078 366.724C363.597 371.246 354.804 373.645 345.661 373.645Z" fill="#CF1545"/>
<path d="M291.202 321.757V335.934C291.202 335.934 289.826 336.825 297.006 339.602C304.186 342.38 320.572 341.66 321.698 341.287C324.164 340.471 326.381 338.163 322.979 335.54C322.979 335.54 328.556 333.519 324.169 329.579C324.169 329.579 330.587 327.292 325.201 322.477C325.201 322.477 327.926 321.453 327.376 318.857C327.032 317.231 325.55 316.106 323.9 316.106H317.169C317.169 316.106 318.349 310.556 311.662 310.161C311.662 310.161 307.725 309.516 304.974 311.377C302.217 313.232 292.323 319.961 291.202 321.757Z" fill="#CF1545"/>
<path d="M339.846 315.226C339.846 315.226 334.053 315.114 333.428 317.977C332.804 320.84 333.428 321.619 334.349 322.477L334.645 323C334.645 323 333.132 324.562 333.465 326.348C333.799 328.134 334.682 328.502 335.825 329.024C335.825 329.024 334.423 330.251 334.497 331.925C334.571 333.599 335.418 334.564 337.042 335.193C337.042 335.193 337.487 335.417 338.259 335.454C338.259 335.454 336.566 335.342 336.508 337.982C336.45 340.621 338.37 341.255 339.846 341.399C341.322 341.549 343.349 341.698 344.349 341.399C345.344 341.101 348.333 337.422 343.576 335.561C343.576 335.561 348.153 333.407 345.386 330.208C345.386 330.208 344.465 329.168 342.952 328.721C342.952 328.721 345.386 327.756 345.941 326.934C345.941 326.934 342.254 327.196 341.185 324.669C340.116 322.141 339.645 319.166 340.449 315.226H339.846Z" fill="#CF1545"/>
<path d="M346.619 310.081C346.619 310.081 343.56 310.54 343.021 314.208C342.481 317.876 343.021 322.434 343.021 322.434C343.021 322.434 343.904 325.41 346.56 322.978C349.216 320.552 348.772 316.538 348.772 316.538L351.428 317.114C351.428 317.114 352.264 319.166 353.888 320.158C353.888 320.158 352.539 326.481 355.904 330.651C356.195 331.013 356.534 331.322 356.888 331.621C357.089 331.786 357.312 332.026 357.28 332.25C357.232 332.645 356.888 332.794 355.851 332.25C354.82 331.706 350.095 327.345 350.148 323.975C350.195 320.606 349.608 320.851 349.608 320.851C349.608 320.851 350.592 324.023 348.037 325.164C348.037 325.164 349.476 327.644 346.804 328.635C346.804 328.635 350.984 332.106 346.804 335.278C346.804 335.278 350.984 338.424 347.047 341.57C347.047 341.57 358.756 342.412 367.211 338.104C367.211 338.104 368.131 337.534 368.788 333.642C369.417 329.877 368.793 321.747 368.793 321.747C368.793 321.747 367.311 319.811 362.147 316.143C356.984 312.475 353.984 310.641 353.984 310.641C353.984 310.641 353.566 309.969 350.026 310.081H346.619Z" fill="#CF1545"/>
<path d="M327.201 312.656L326.963 312.747C326.592 312.885 326.18 312.694 326.048 312.32L321.608 302.217C321.471 301.844 321.661 301.428 322.032 301.294L323.323 300.815C323.693 300.676 324.106 300.868 324.238 301.241L327.624 311.739C327.756 312.107 327.571 312.518 327.201 312.656Z" fill="#CF1545"/>
<path d="M329.815 312.139H329.561C329.164 312.139 328.846 311.819 328.846 311.419L328.153 300.393C328.153 299.994 328.471 299.674 328.868 299.674H330.243C330.635 299.674 330.958 299.994 330.958 300.393L330.534 311.425C330.529 311.819 330.212 312.139 329.815 312.139Z" fill="#CF1545"/>
<path d="M332.391 312.832L332.148 312.752C331.772 312.624 331.577 312.219 331.704 311.84L334.571 301.172C334.698 300.793 335.106 300.596 335.476 300.724L336.778 301.167C337.153 301.294 337.349 301.705 337.222 302.078L333.296 312.384C333.169 312.758 332.762 312.96 332.391 312.832Z" fill="#CF1545"/>
<path d="M328.815 343.638L328.582 343.553C328.222 343.42 327.825 343.606 327.693 343.964L323.397 353.753C323.265 354.115 323.45 354.515 323.804 354.648L325.053 355.112C325.413 355.245 325.809 355.059 325.942 354.702L329.222 344.534C329.354 344.172 329.174 343.772 328.815 343.638Z" fill="#CF1545"/>
<path d="M331.349 344.14H331.1C330.72 344.14 330.407 344.449 330.407 344.838L329.735 355.517C329.735 355.901 330.042 356.216 330.429 356.216H331.762C332.143 356.216 332.455 355.901 332.455 355.517L332.042 344.838C332.042 344.449 331.735 344.14 331.349 344.14Z" fill="#CF1545"/>
<path d="M333.841 343.468L333.608 343.548C333.248 343.671 333.053 344.065 333.174 344.433L335.952 354.76C336.074 355.123 336.465 355.32 336.83 355.198L338.09 354.766C338.449 354.643 338.645 354.249 338.523 353.881L334.719 343.9C334.598 343.537 334.206 343.345 333.841 343.468Z" fill="#CF1545"/>
</g>
<path d="M262.91 425.973C265.129 420.007 272.93 418.91 277.612 422.46C276.905 423.174 275.506 424.603 274.8 425.317C271.538 424.198 265.729 425.421 267.834 430.201C269.404 432.698 266.207 433.758 264.894 434.988C263.416 432.278 261.482 429.17 262.91 425.973Z" fill="#FDFDFE"/>
<path d="M327.335 419.035C332.295 429.987 337.005 441.057 341.808 452.076C340.552 452.076 338.019 452.105 336.763 452.12C333.565 444.666 330.603 437.109 327.292 429.715C324.137 437.242 320.776 444.681 317.443 452.12C316.258 452.105 313.867 452.076 312.668 452.061C317.3 440.925 322.653 430.149 327.335 419.035Z" fill="#FDFDFE"/>
<path d="M353.506 418.667C357.124 426.555 360.336 434.642 363.897 442.56C367.701 434.841 370.627 426.687 374.752 419.131C376.558 430.127 378.514 441.087 380.276 452.083C379.12 452.083 376.801 452.083 375.637 452.068C374.66 445.911 373.818 439.731 372.626 433.603C369.771 440.24 366.859 446.876 363.79 453.438C360.314 445.255 356.796 437.102 353.306 428.934C351.657 425.7 353.128 422.032 353.506 418.667Z" fill="#FDFDFE"/>
<path d="M202.103 425.435C202.117 423.947 202.131 422.474 202.146 420.987C207.627 421.046 215.078 419.948 218.204 425.885C220.759 431.107 217.725 437.131 212.68 439.157C215.677 443.502 218.76 447.789 221.701 452.186C219.581 451.722 216.584 453.004 215.185 450.713C212.287 446.876 209.882 442.663 206.984 438.811C206.578 443.23 206.563 447.664 206.642 452.098C205.514 452.098 203.266 452.083 202.146 452.083C202.131 446.53 202.131 440.984 202.131 435.43C206.356 435.106 214.343 436.697 214.528 430.193C214.271 423.83 206.256 425.855 202.103 425.435Z" fill="#FDFDFE"/>
<path d="M234.048 421.863C241.934 418.188 252.532 422.055 255.152 430.908C258.363 439.385 253.639 449.984 244.889 452.149C236.631 454.705 226.911 449.233 225.169 440.394C223.235 433.036 227.303 424.78 234.048 421.863ZM235.432 426.15C227.417 429.913 227.703 443.318 235.618 447.067C242.812 451.31 252.368 444.254 251.619 435.968C252.026 427.696 242.212 422.253 235.432 426.15Z" fill="#FDFDFE"/>
<path d="M303.84 421.016C304.982 421.016 307.258 421.016 308.393 421.016C308.393 431.372 308.408 441.727 308.379 452.083C307.251 452.083 304.975 452.083 303.84 452.083C303.826 447.281 303.826 442.486 303.84 437.669C299.558 437.669 295.276 437.669 290.993 437.654C290.979 442.457 290.951 447.252 290.893 452.054C289.438 452.068 287.982 452.083 286.526 452.098C286.526 445.808 286.554 439.54 286.469 433.25C292.249 432.941 298.045 433.412 303.826 433.073C303.84 429.052 303.811 425.023 303.84 421.016Z" fill="#FDFDFE"/>
<path d="M386.686 420.942C390.996 421.222 396.242 420.022 399.603 423.609C402.53 426.79 401.98 431.747 399.967 435.29C404.264 437.956 406.198 444.394 402.779 448.592C398.861 453.505 392.067 451.906 386.678 452.09C386.65 446.154 386.65 440.218 386.678 434.266C388.834 434.141 391.096 434.377 393.266 434.126C395.849 433.824 397.684 431.401 397.291 428.75C397.27 428.617 397.248 428.492 397.227 428.359C397.02 427.254 396.27 426.319 395.25 425.929C392.552 424.912 389.483 425.258 386.657 425.03C386.671 424.021 386.686 421.981 386.686 420.942ZM391.132 438.023C391.103 441.278 391.103 444.526 391.103 447.782C394.365 447.362 399.953 447.944 399.982 443.097C400.21 438.155 394.486 438.273 391.132 438.023Z" fill="#FDFDFE"/>
<path d="M419.237 421.76C425.482 419.175 433.697 420.611 437.765 426.489C443.167 433.603 441.79 445.521 434.003 450.22C426.524 455.309 415.105 452.348 411.301 443.834C407.161 435.894 411.065 424.986 419.237 421.76ZM420.593 426.047C412.75 429.545 412.307 442.25 419.687 446.566C426.881 451.789 437.329 444.659 436.608 435.931C436.887 427.8 427.373 422.371 420.593 426.047Z" fill="#FDFDFE"/>
<path d="M270.653 437.19C271.881 435.968 273.115 434.752 274.357 433.53C279.796 436.24 282.558 443.635 278.668 448.901C274.329 454.72 265.35 453.129 261.596 447.413C262.81 445.911 264.073 444.438 265.3 442.95C265.829 443.701 266.25 444.57 266.728 445.388C267.948 447.495 270.432 448.481 272.694 447.701C272.716 447.693 272.737 447.686 272.758 447.679C274.793 446.964 276.084 444.865 275.706 442.685C275.256 440.137 273.458 438.045 270.653 437.19Z" fill="#FDFDFE"/>
<path d="M347.247 452.172C348.417 445.882 349.566 439.584 350.851 433.324C351.886 435.762 352.942 438.192 353.977 440.63C353.242 444.35 352.721 448.128 352.114 451.877C350.894 451.951 348.46 452.098 347.247 452.172Z" fill="#FDFDFE"/>
<g filter="url(#filter0_d_701_6108)">
<ellipse rx="31.292" ry="28.6797" transform="matrix(0.976861 0.205018 -0.145947 0.988093 403.754 59.6349)" fill="#141415"/>
</g>
<g filter="url(#filter1_d_701_6108)">
<path d="M399.288 48.663C395.302 47.8264 391.628 50.1438 391.083 53.839C390.094 60.5297 397.726 68.4025 402.11 70.7814C406.912 70.3304 416.34 66.0381 417.328 59.3473C417.874 55.6521 415.085 51.9784 411.099 51.1418C408.658 50.6294 406.334 51.2999 404.774 52.7452C403.722 50.7516 401.729 49.1753 399.288 48.663Z" fill="#CF1545" stroke="#CF1545" stroke-width="2" stroke-linecap="round" stroke-linejoin="round"/>
</g>
<g filter="url(#filter2_d_701_6108)">
<ellipse rx="32.0553" ry="29.9121" transform="matrix(0.767414 -0.588502 0.583126 0.774588 561.757 515.636)" fill="#141415"/>
</g>
<g filter="url(#filter3_d_701_6108)">
<path d="M551.013 511.323C547.805 513.783 547.048 518.227 549.323 521.249C553.44 526.72 564.048 526.429 568.615 524.751C571.44 520.759 574.56 510.521 570.443 505.05C568.168 502.028 563.724 501.573 560.517 504.033C558.552 505.54 557.507 507.791 557.514 510.003C555.405 509.403 552.977 509.816 551.013 511.323Z" fill="#CF1545" stroke="#CF1545" stroke-width="2" stroke-linecap="round" stroke-linejoin="round"/>
</g>
<g filter="url(#filter4_d_701_6108)">
<ellipse rx="32.0551" ry="29.9121" transform="matrix(0.767419 -0.588504 0.583129 0.774591 81.0423 521.922)" fill="#141415"/>
</g>
<g filter="url(#filter5_d_701_6108)">
<path d="M70.2977 517.609C67.09 520.069 66.3334 524.513 68.6077 527.535C72.7256 533.006 83.3332 532.715 87.9 531.037C90.7252 527.045 93.8456 516.807 89.7276 511.336C87.4533 508.314 83.0093 507.859 79.8016 510.319C77.8373 511.826 76.7921 514.077 76.7993 516.289C74.69 515.689 72.262 516.102 70.2977 517.609Z" fill="#CF1545" stroke="#CF1545" stroke-width="2" stroke-linecap="round" stroke-linejoin="round"/>
</g>
<defs>
<filter id="filter0_d_701_6108" x="322.897" y="0.573242" width="161.714" height="158.123" filterUnits="userSpaceOnUse" color-interpolation-filters="sRGB">
<feFlood flood-opacity="0" result="BackgroundImageFix"/>
<feColorMatrix in="SourceAlpha" type="matrix" values="0 0 0 0 0 0 0 0 0 0 0 0 0 0 0 0 0 0 127 0" result="hardAlpha"/>
<feOffset dy="20"/>
<feGaussianBlur stdDeviation="25"/>
<feColorMatrix type="matrix" values="0 0 0 0 0 0 0 0 0 0 0 0 0 0 0 0 0 0 0.07 0"/>
<feBlend mode="normal" in2="BackgroundImageFix" result="effect1_dropShadow_701_6108"/>
<feBlend mode="normal" in="SourceGraphic" in2="effect1_dropShadow_701_6108" result="shape"/>
</filter>
<filter id="filter1_d_701_6108" x="370.853" y="41.7313" width="65.8073" height="65.8062" filterUnits="userSpaceOnUse" color-interpolation-filters="sRGB">
<feFlood flood-opacity="0" result="BackgroundImageFix"/>
<feColorMatrix in="SourceAlpha" type="matrix" values="0 0 0 0 0 0 0 0 0 0 0 0 0 0 0 0 0 0 127 0" result="hardAlpha"/>
<feOffset dy="15"/>
<feGaussianBlur stdDeviation="7.5"/>
<feColorMatrix type="matrix" values="0 0 0 0 0.913725 0 0 0 0 0.25098 0 0 0 0 0.341176 0 0 0 0.2 0"/>
<feBlend mode="normal" in2="BackgroundImageFix" result="effect1_dropShadow_701_6108"/>
<feBlend mode="normal" in="SourceGraphic" in2="effect1_dropShadow_701_6108" result="shape"/>
</filter>
<filter id="filter2_d_701_6108" x="481.599" y="455.757" width="160.317" height="159.758" filterUnits="userSpaceOnUse" color-interpolation-filters="sRGB">
<feFlood flood-opacity="0" result="BackgroundImageFix"/>
<feColorMatrix in="SourceAlpha" type="matrix" values="0 0 0 0 0 0 0 0 0 0 0 0 0 0 0 0 0 0 127 0" result="hardAlpha"/>
<feOffset dy="20"/>
<feGaussianBlur stdDeviation="25"/>
<feColorMatrix type="matrix" values="0 0 0 0 0 0 0 0 0 0 0 0 0 0 0 0 0 0 0.07 0"/>
<feBlend mode="normal" in2="BackgroundImageFix" result="effect1_dropShadow_701_6108"/>
<feBlend mode="normal" in="SourceGraphic" in2="effect1_dropShadow_701_6108" result="shape"/>
</filter>
<filter id="filter3_d_701_6108" x="525.098" y="493.979" width="73.3134" height="73.3135" filterUnits="userSpaceOnUse" color-interpolation-filters="sRGB">
<feFlood flood-opacity="0" result="BackgroundImageFix"/>
<feColorMatrix in="SourceAlpha" type="matrix" values="0 0 0 0 0 0 0 0 0 0 0 0 0 0 0 0 0 0 127 0" result="hardAlpha"/>
<feOffset dy="15"/>
<feGaussianBlur stdDeviation="7.5"/>
<feColorMatrix type="matrix" values="0 0 0 0 0.913725 0 0 0 0 0.25098 0 0 0 0 0.341176 0 0 0 0.2 0"/>
<feBlend mode="normal" in2="BackgroundImageFix" result="effect1_dropShadow_701_6108"/>
<feBlend mode="normal" in="SourceGraphic" in2="effect1_dropShadow_701_6108" result="shape"/>
</filter>
<filter id="filter4_d_701_6108" x="0.883774" y="462.043" width="160.317" height="159.758" filterUnits="userSpaceOnUse" color-interpolation-filters="sRGB">
<feFlood flood-opacity="0" result="BackgroundImageFix"/>
<feColorMatrix in="SourceAlpha" type="matrix" values="0 0 0 0 0 0 0 0 0 0 0 0 0 0 0 0 0 0 127 0" result="hardAlpha"/>
<feOffset dy="20"/>
<feGaussianBlur stdDeviation="25"/>
<feColorMatrix type="matrix" values="0 0 0 0 0 0 0 0 0 0 0 0 0 0 0 0 0 0 0.07 0"/>
<feBlend mode="normal" in2="BackgroundImageFix" result="effect1_dropShadow_701_6108"/>
<feBlend mode="normal" in="SourceGraphic" in2="effect1_dropShadow_701_6108" result="shape"/>
</filter>
<filter id="filter5_d_701_6108" x="44.3828" y="500.266" width="73.3132" height="73.313" filterUnits="userSpaceOnUse" color-interpolation-filters="sRGB">
<feFlood flood-opacity="0" result="BackgroundImageFix"/>
<feColorMatrix in="SourceAlpha" type="matrix" values="0 0 0 0 0 0 0 0 0 0 0 0 0 0 0 0 0 0 127 0" result="hardAlpha"/>
<feOffset dy="15"/>
<feGaussianBlur stdDeviation="7.5"/>
<feColorMatrix type="matrix" values="0 0 0 0 0.913725 0 0 0 0 0.25098 0 0 0 0 0.341176 0 0 0 0.2 0"/>
<feBlend mode="normal" in2="BackgroundImageFix" result="effect1_dropShadow_701_6108"/>
<feBlend mode="normal" in="SourceGraphic" in2="effect1_dropShadow_701_6108" result="shape"/>
</filter>
<clipPath id="clip0_701_6108">
<rect width="144.696" height="135.722" fill="white" transform="translate(249.213 238.077)"/>
</clipPath>
</defs>
</svg>
