<svg width="234" height="67" viewBox="0 0 234 67" fill="none" xmlns="http://www.w3.org/2000/svg">
<path d="M225.196 65.5271H8.80789C4.42268 65.5271 0.869141 62.1218 0.869141 57.9236V8.79694C0.869141 4.59874 4.42268 1.18945 8.80789 1.18945H225.196C229.581 1.18945 233.134 4.59874 233.134 8.79694V57.9236C233.134 62.1218 229.581 65.5271 225.196 65.5271Z" fill="#141415"/>
<path d="M8.80404 2.02273C4.90607 2.02273 1.73476 5.0617 1.73476 8.79702V57.9237C1.73476 61.659 4.90607 64.6939 8.80404 64.6939H225.196C229.094 64.6939 232.265 61.659 232.265 57.9237V8.79702C232.265 5.0617 229.094 2.02273 225.196 2.02273H8.80404ZM225.196 66.3604H8.80404C3.94837 66.3604 0 62.5767 0 57.9237V8.79702C0 4.14397 3.94837 0.360352 8.80404 0.360352H225.196C230.052 0.360352 234 4.14397 234 8.79702V57.9237C234 62.5767 230.052 66.3604 225.196 66.3604Z" fill="#A7A9AB"/>
<path d="M17.9988 12.569C17.5042 13.0739 17.2031 13.8673 17.2031 14.8977V51.5193C17.2031 52.5497 17.5042 53.3329 17.9988 53.8481L18.1279 53.9717L39.5371 33.4455V33.1982V32.9612L18.1279 12.4453L17.9988 12.569Z" fill="#5BC9F4"/>
<path d="M46.6752 40.2876L39.5352 33.4455V33.1982V32.9612L46.6752 26.1191L46.8365 26.2119L55.2883 30.8179C57.7078 32.1369 57.7078 34.2802 55.2883 35.5991L46.8365 40.2052L46.6752 40.2876Z" fill="url(#paint0_linear_701_6046)"/>
<path d="M46.8396 40.2051L39.5383 33.2085L18 53.8481C18.7957 54.6518 20.1076 54.7548 21.5915 53.9511L46.8396 40.2051Z" fill="url(#paint1_linear_701_6046)"/>
<path d="M46.8396 26.2118L21.5915 12.4658C20.1076 11.6621 18.7957 11.7548 18 12.5689L39.5383 33.2084L46.8396 26.2118Z" fill="url(#paint2_linear_701_6046)"/>
<path d="M185.149 50.123H188.375V29.4057H185.149V50.123ZM214.216 36.8682L210.515 45.8523H210.406L206.567 36.8682H203.089L208.847 49.4226L205.563 56.4062H208.931L217.803 36.8682H214.216ZM195.91 47.7683C194.856 47.7683 193.382 47.2651 193.382 46.0093C193.382 44.4113 195.217 43.7995 196.801 43.7995C198.22 43.7995 198.888 44.0933 199.749 44.4918C199.497 46.4118 197.775 47.7683 195.91 47.7683ZM196.301 36.4174C193.965 36.4174 191.546 37.4036 190.542 39.5892L193.407 40.7324C194.02 39.5892 195.158 39.2149 196.355 39.2149C198.027 39.2149 199.72 40.1729 199.749 41.8795V42.0929C199.166 41.7749 197.914 41.2919 196.385 41.2919C193.298 41.2919 190.156 42.918 190.156 45.957C190.156 48.7303 192.684 50.5174 195.524 50.5174C197.691 50.5174 198.888 49.5836 199.64 48.4888H199.749V50.0908H202.866V42.1452C202.866 38.4702 200.001 36.4174 196.301 36.4174ZM176.357 39.392H171.766V32.2876H176.357C178.773 32.2876 180.138 34.2036 180.138 35.8378C180.138 37.4479 178.773 39.392 176.357 39.392ZM176.273 29.4057H168.54V50.123H171.766V42.274H176.273C179.852 42.274 183.368 39.7905 183.368 35.8378C183.368 31.8851 179.852 29.4057 176.273 29.4057ZM134.11 47.7723C131.879 47.7723 130.01 45.9852 130.01 43.5298C130.01 41.0463 131.879 39.231 134.11 39.231C136.311 39.231 138.037 41.0463 138.037 43.5298C138.037 45.9852 136.311 47.7723 134.11 47.7723ZM137.81 38.0275H137.701C136.979 37.2023 135.584 36.4537 133.828 36.4537C130.149 36.4537 126.78 39.553 126.78 43.5298C126.78 47.4825 130.149 50.5537 133.828 50.5537C135.584 50.5537 136.979 49.805 137.701 48.9517H137.81V49.962C137.81 52.6588 136.311 54.1038 133.883 54.1038C131.905 54.1038 130.678 52.7393 130.178 51.5922L127.364 52.7152C128.17 54.5828 130.317 56.8771 133.883 56.8771C137.672 56.8771 140.877 54.7438 140.877 49.5353V36.8803H137.81V38.0275ZM143.107 50.123H146.341V29.4057H143.107V50.123ZM151.105 43.2883C151.021 40.5633 153.306 39.1787 154.948 39.1787C156.229 39.1787 157.317 39.7905 157.678 40.672L151.105 43.2883ZM161.135 40.9376C160.522 39.3638 158.657 36.4537 154.835 36.4537C151.05 36.4537 147.9 39.3115 147.9 43.5016C147.9 47.4543 151.021 50.5537 155.2 50.5537C158.573 50.5537 160.522 48.5773 161.328 47.4261L158.821 45.8241C157.985 46.9995 156.842 47.7723 155.2 47.7723C153.558 47.7723 152.386 47.0558 151.634 45.639L161.467 41.7427L161.135 40.9376ZM82.7725 38.6151V41.6058H90.2408C90.0182 43.2883 89.4343 44.516 88.5396 45.3693C87.4559 46.4118 85.7548 47.559 82.7725 47.559C78.1773 47.559 74.5817 44.0088 74.5817 39.6053C74.5817 35.1978 78.1773 31.6477 82.7725 31.6477C85.2549 31.6477 87.0653 32.5815 88.401 33.785L90.602 31.6718C88.7371 29.9651 86.2588 28.657 82.7725 28.657C76.4761 28.657 71.1836 33.5717 71.1836 39.6053C71.1836 45.639 76.4761 50.5537 82.7725 50.5537C86.1748 50.5537 88.7371 49.483 90.7449 47.4825C92.803 45.5062 93.4457 42.7288 93.4457 40.4868C93.4457 39.7905 93.3911 39.1505 93.2777 38.6151H82.7725ZM101.935 47.7723C99.7043 47.7723 97.7847 46.0133 97.7847 43.5016C97.7847 40.9658 99.7043 39.231 101.935 39.231C104.165 39.231 106.085 40.9658 106.085 43.5016C106.085 46.0133 104.165 47.7723 101.935 47.7723ZM101.935 36.4537C97.8645 36.4537 94.5504 39.4161 94.5504 43.5016C94.5504 47.559 97.8645 50.5537 101.935 50.5537C106.005 50.5537 109.319 47.559 109.319 43.5016C109.319 39.4161 106.005 36.4537 101.935 36.4537ZM118.043 47.7723C115.813 47.7723 113.889 46.0133 113.889 43.5016C113.889 40.9658 115.813 39.231 118.043 39.231C120.269 39.231 122.193 40.9658 122.193 43.5016C122.193 46.0133 120.269 47.7723 118.043 47.7723ZM118.043 36.4537C113.973 36.4537 110.659 39.4161 110.659 43.5016C110.659 47.559 113.973 50.5537 118.043 50.5537C122.109 50.5537 125.428 47.559 125.428 43.5016C125.428 39.4161 122.109 36.4537 118.043 36.4537Z" fill="white"/>
<path d="M79.4925 14.086C78.8414 13.5346 77.9887 13.1804 77.0394 13.1804C74.914 13.1804 73.2759 14.8629 73.2759 16.9278C73.2759 18.9967 74.914 20.6631 77.0394 20.6631C78.8708 20.6631 80.2023 19.6447 80.2905 18.0307H77.3965V16.8875H81.8531C81.8531 20.3129 79.9503 21.923 77.0394 21.923C74.1454 21.923 71.9023 19.689 71.9023 16.9278C71.9023 14.1545 74.1454 11.9165 77.0394 11.9165C78.3836 11.9165 79.5933 12.4156 80.4796 13.2045" fill="white"/>
<path d="M89.758 12.0332V13.2609H85.104V16.3763H89.1658V17.608H85.104V20.5504H89.9051V21.7821H83.7305V12.0332" fill="white"/>
<path d="M98.6623 12.0332V13.277H95.575V21.7821H94.1889V13.277H91.1016V12.0332" fill="white"/>
<path d="M103.875 21.7821H105.249V12.0332H103.875V21.7821Z" fill="white"/>
<path d="M114.616 12.0332V13.277H111.528V21.7821H110.138V13.277H107.051V12.0332" fill="white"/>
<path d="M124.303 20.651C126.445 20.651 128.083 18.9967 128.083 16.9278C128.083 14.8629 126.445 13.1925 124.303 13.1925C122.178 13.1925 120.54 14.8629 120.54 16.9278C120.54 18.9967 122.178 20.651 124.303 20.651ZM124.303 11.9165C127.214 11.9165 129.474 14.1545 129.474 16.9278C129.474 19.689 127.214 21.923 124.303 21.923C121.409 21.923 119.166 19.689 119.166 16.9278C119.166 14.1545 121.409 11.9165 124.303 11.9165Z" fill="white"/>
<path d="M137.597 21.7821L132.959 14.4402V21.7821H131.586V12.0332H132.947L137.538 19.3187V12.0332H138.911V21.7821" fill="white"/>
<defs>
<linearGradient id="paint0_linear_701_6046" x1="53.7214" y1="33.2064" x2="11.9076" y2="33.2064" gradientUnits="userSpaceOnUse">
<stop stop-color="#FEE000"/>
<stop offset="0.1941" stop-color="#FCCF0B"/>
<stop offset="0.5469" stop-color="#FAB318"/>
<stop offset="0.8279" stop-color="#F9A21B"/>
<stop offset="1" stop-color="#F99B1C"/>
</linearGradient>
<linearGradient id="paint1_linear_701_6046" x1="42.8733" y1="37.0063" x2="5.22093" y2="76.2982" gradientUnits="userSpaceOnUse">
<stop stop-color="#EF4547"/>
<stop offset="1" stop-color="#C6186D"/>
</linearGradient>
<linearGradient id="paint2_linear_701_6046" x1="3.37041" y1="-8.4496" x2="34.1126" y2="23.6313" gradientUnits="userSpaceOnUse">
<stop stop-color="#279E6F"/>
<stop offset="0.3168" stop-color="#4DAB6D"/>
<stop offset="0.7398" stop-color="#6ABA6A"/>
<stop offset="1" stop-color="#74C169"/>
</linearGradient>
</defs>
</svg>
