<svg width="134" height="144" viewBox="0 0 134 144" fill="none" xmlns="http://www.w3.org/2000/svg">
<path d="M134 88.2C134 124.982 88.6112 144 51.6081 144C14.605 144 0 104.282 0 67.5C0 30.7178 29.9969 0 67 0C104.003 0 134 51.4178 134 88.2Z" fill="#CF1545"/>
<g clip-path="url(#clip0_1022_6079)">
<path d="M50.738 98.4202L50.6091 98.3004C50.5622 98.2525 50.5036 98.2165 50.4567 98.1686C50.3277 98.0608 50.1988 97.965 50.0816 97.8332C48.3349 96.0361 46.5999 94.251 44.8532 92.4539C43.423 90.9802 41.9929 89.5066 40.5627 88.045C40.3869 87.8653 40.1758 87.6137 40.0352 87.2782L40 87.1824V86.5235L40.0586 86.4156C40.1993 86.1401 40.3869 85.8765 40.6448 85.6249L40.9964 85.2775C42.1335 84.1153 43.3175 82.9173 44.4546 81.7312C45.1463 81.0124 45.8965 80.6649 46.7523 80.6649C46.8226 80.6649 46.893 80.6649 46.9633 80.6769C46.975 80.6769 46.975 80.6769 46.9868 80.6769C46.9985 80.6769 47.0102 80.6769 47.0102 80.6769C47.0102 80.6769 47.0336 80.6529 47.0805 80.5691C48.8624 77.55 51.5821 75.7169 55.1575 75.1179C55.8374 74.9981 56.5291 74.9502 57.1973 74.9502C58.6626 74.9502 60.1162 75.2257 61.523 75.7768C61.6871 75.8367 61.8629 75.8487 62.0856 75.8487C62.0856 75.8487 66.3996 75.8487 67.2085 75.8487C68.5097 75.8487 69.8227 75.8487 71.1239 75.8487H71.1473C72.3782 75.8487 73.3629 76.2201 74.1601 76.9749C74.6993 76.3998 75.2503 75.8248 75.8013 75.2617C76.8563 74.1594 77.9465 73.0093 79.0016 71.8711C79.7987 71.0085 80.9006 70.5173 82.0495 70.5173C83.632 70.5173 84.9919 71.4159 85.6015 72.8536C86.2697 74.435 86.1173 75.9685 85.1677 77.1546C84.0423 78.5683 82.8701 79.994 81.7447 81.3718C81.2992 81.9109 80.8655 82.45 80.42 82.9892C79.9628 83.5523 79.4939 84.1153 79.0367 84.6784C78.5561 85.2655 78.0637 85.8645 77.5831 86.4516C75.9654 88.4284 73.8553 89.4467 71.3232 89.4827C69.3186 89.5066 67.4781 89.5186 65.6845 89.5186C63.6917 89.5186 61.7457 89.5066 59.9052 89.4827H59.8583C58.9322 89.4827 58.2054 89.866 57.3614 90.7886C57.3614 90.8005 57.3614 90.8245 57.3731 90.8365C57.5841 92.0585 57.2207 93.1368 56.2829 94.0593C55.4389 94.8859 54.5948 95.7366 53.7742 96.5632C53.3288 97.0185 52.8833 97.4618 52.4378 97.905C52.3206 98.0249 52.2034 98.1207 52.0861 98.2165C52.0393 98.2525 51.9924 98.3004 51.9455 98.3364L51.8165 98.4442H50.738V98.4202ZM43.3527 86.8709C45.7324 89.3149 48.2528 91.9147 51.2656 95.0297C52.0158 94.2629 52.7895 93.4842 53.528 92.7294C53.8328 92.4179 54.1493 92.1064 54.4541 91.7949C54.6065 91.6392 54.6183 91.5553 54.6183 91.4954V91.4834V91.4715C54.6183 91.3756 54.5596 91.2917 54.3721 91.0881L52.1213 88.7878C50.4801 87.1105 48.8272 85.4212 47.186 83.7439C47.0336 83.5882 46.893 83.4924 46.7992 83.4924C46.7054 83.4924 46.5647 83.5762 46.4123 83.7439C45.9786 84.1872 45.5449 84.6305 45.1111 85.0738C44.5367 85.6608 43.9388 86.2719 43.3527 86.8709ZM49.472 82.0068C49.4837 82.0307 49.5071 82.0667 49.5775 82.1266C51.1132 83.684 52.6723 85.2655 54.1728 86.811C54.6652 87.3142 55.1458 87.8054 55.6381 88.3086C55.6733 88.3445 55.6968 88.3685 55.7319 88.4044C55.7554 88.3805 55.7905 88.3445 55.8023 88.3205C56.8573 87.1704 58.2171 86.5953 59.8466 86.5953H59.9287C60.5969 86.6073 61.3002 86.6073 62.1677 86.6073C62.7421 86.6073 63.3048 86.6073 63.8792 86.6073C64.2895 86.6073 64.7115 86.6073 65.1218 86.6073L65.5907 86.5953C66.2003 86.5953 66.7982 86.5953 67.4078 86.6073C68.0174 86.6073 68.6152 86.6193 69.2248 86.6193C70.1392 86.6193 70.8894 86.6073 71.5928 86.5953C73.0933 86.5474 74.3594 85.9244 75.3558 84.7383C75.8247 84.1753 76.2936 83.6002 76.7508 83.0491C76.9266 82.8334 77.1025 82.6178 77.2666 82.4141C77.7824 81.7911 78.2865 81.1681 78.8023 80.5331C80.1738 78.8678 81.5923 77.1306 82.9638 75.4294C83.4093 74.8783 83.3507 74.1235 82.8466 73.6802C82.6122 73.4766 82.3308 73.3567 82.0378 73.3567C81.6978 73.3567 81.3696 73.5005 81.1117 73.7761C80.0449 74.8903 78.9664 76.0284 77.9231 77.1187C77.1376 77.9453 76.3522 78.772 75.5785 79.5867C75.4965 79.6705 75.473 79.7424 75.4613 79.8622C75.4027 82.4021 73.6912 84.1153 71.1942 84.1153C70.3385 84.1153 69.471 84.1153 68.6152 84.1153C67.5016 84.1153 66.3996 84.1153 65.286 84.1153H64.5123C64.3716 84.1153 64.2075 84.1153 64.0433 84.0794C63.3634 83.9476 62.9062 83.4205 62.8945 82.7256C62.8711 81.9948 63.3165 81.4317 64.0082 81.2759C64.2309 81.228 64.4419 81.228 64.6412 81.228C64.6412 81.228 65.5907 81.228 66.0479 81.228H68.2987C69.342 81.228 70.3853 81.228 71.4287 81.228C72.1438 81.228 72.6478 80.7128 72.6478 79.982C72.6478 79.2273 72.132 78.7241 71.3349 78.7241C69.8461 78.7241 68.3573 78.7241 66.8685 78.7241C65.6142 78.7241 64.3481 78.7241 63.0938 78.7241H61.816C61.5112 78.7241 61.1713 78.7121 60.8196 78.5563C59.6825 78.0651 58.4633 77.8135 57.209 77.8135C56.7166 77.8135 56.2126 77.8495 55.6968 77.9214C52.9888 78.3167 50.9725 79.6226 49.5423 81.9109C49.4954 81.9588 49.4837 81.9948 49.472 82.0068Z" fill="white"/>
<path d="M66.6929 72.2185C63.9732 72.2185 61.4177 71.1523 59.5069 69.2114C57.5843 67.2586 56.5176 64.6228 56.5176 61.7954C56.5176 58.944 57.6078 56.2963 59.6007 54.3315C61.4763 52.4864 64.0201 51.4202 66.564 51.4202C66.6109 51.4202 66.6695 51.4202 66.7164 51.4202C66.7632 51.4202 66.8101 51.4202 66.857 51.4202C69.4712 51.4202 72.0502 52.5344 73.9493 54.4632C75.8484 56.4161 76.9034 59.0279 76.8917 61.8194C76.8917 64.6348 75.8249 67.2705 73.9024 69.2114C71.9916 71.1403 69.436 72.2066 66.7164 72.2066H66.6929V72.2185ZM66.7046 54.2596C62.5782 54.2596 59.331 57.5782 59.3076 61.8194C59.2959 63.8081 60.0578 65.6891 61.4528 67.1268C62.8596 68.5644 64.7118 69.3671 66.6812 69.3671C68.6858 69.3671 70.5497 68.5764 71.9564 67.1268C73.3397 65.7011 74.1017 63.8201 74.1017 61.8313C74.09 57.5902 70.8428 54.2716 66.7046 54.2596V53.7803V54.2596Z" fill="white"/>
<path d="M60.5737 83.9117C60.1986 83.9117 59.8469 83.7679 59.589 83.5043C59.3311 83.2407 59.1904 82.8813 59.1904 82.4979C59.1904 81.7072 59.8 81.0962 60.5737 81.0842C60.9488 81.0842 61.3005 81.228 61.5584 81.4916C61.8163 81.7551 61.957 82.1146 61.957 82.4979C61.957 83.2887 61.3474 83.9117 60.5737 83.9117Z" fill="white"/>
<path d="M61.4879 82.498C61.4879 83.0251 61.0894 83.4324 60.5736 83.4324C60.0578 83.4324 59.6592 83.0251 59.6592 82.498C59.6592 81.9708 60.0578 81.5635 60.5736 81.5635C61.1011 81.5755 61.4879 81.9708 61.4879 82.498Z" fill="white"/>
<path d="M66.505 68.6244C66.1182 68.6124 65.7313 68.4327 65.4734 68.1332C65.2507 67.8696 65.1452 67.5461 65.1687 67.2227C65.2273 66.6476 65.0866 66.384 64.6177 66.1923C64.184 66.0126 63.8909 65.6292 63.6564 65.3297C63.1641 64.6947 63.2227 63.8561 63.7971 63.3409C64.055 63.1133 64.3715 62.9815 64.6997 62.9815C65.0632 62.9815 65.4148 63.1373 65.6962 63.4128L65.7548 63.4727C65.9541 63.6644 66.1299 63.8321 66.3292 63.928C66.3995 63.9639 66.4699 63.9759 66.5285 63.9759C66.5754 63.9759 66.6574 63.9639 66.7629 63.8681C66.8919 63.7483 66.9036 63.6524 66.8802 63.5446C66.8216 63.329 66.7278 63.281 66.5871 63.2691C65.8955 63.2092 64.8873 63.0175 64.1371 62.095C63.5275 61.3402 63.2696 60.3697 63.4337 59.4353C63.5978 58.5247 64.1488 57.722 64.9576 57.2428C65.1804 57.111 65.1804 57.0511 65.1569 56.9073C65.1335 56.7037 65.1452 56.5 65.1569 56.3203C65.2155 55.5775 65.7782 55.0264 66.505 55.0144H66.5168C66.9271 55.0144 67.3374 55.1941 67.5953 55.4936C67.818 55.7452 67.9118 56.0687 67.8766 56.3922C67.8063 56.9672 67.9821 57.2548 68.5331 57.5064C68.8144 57.6382 69.0254 57.8778 69.1895 58.0934C69.5295 58.5247 69.5764 59.0639 69.3302 59.579C69.0958 60.0702 68.662 60.3458 68.1111 60.3578C68.0993 60.3578 68.0876 60.3578 68.0642 60.3578C67.7477 60.3578 67.4546 60.2499 67.1615 60.0223L67.0912 59.9624C66.974 59.8666 66.8567 59.7827 66.7512 59.7348C66.6574 59.6868 66.5637 59.6749 66.4933 59.6749C66.4113 59.6749 66.3526 59.6988 66.2823 59.7707C66.1416 59.9025 66.1416 60.0103 66.1885 60.1301C66.2589 60.3218 66.3527 60.3937 66.5637 60.4057C67.4194 60.4296 68.1462 60.7411 68.7324 61.3402C69.4474 62.071 69.7874 63.0654 69.6467 64.0718C69.5178 65.0661 68.9434 65.9288 68.0759 66.42C67.8883 66.5278 67.8883 66.5517 67.9 66.6835C67.9235 66.8872 67.9235 67.1029 67.9 67.3544C67.8297 68.0733 67.2319 68.6484 66.5402 68.6484L66.505 68.6244Z" fill="white"/>
</g>
<defs>
<clipPath id="clip0_1022_6079">
<rect width="46" height="47" fill="white" transform="translate(40 51.4202)"/>
</clipPath>
</defs>
</svg>
