<svg width="134" height="144" viewBox="0 0 134 144" fill="none" xmlns="http://www.w3.org/2000/svg">
<path d="M134 88.2C134 124.982 88.6112 144 51.6081 144C14.605 144 0 104.282 0 67.5C0 30.7178 29.9969 0 67 0C104.003 0 134 51.4178 134 88.2Z" fill="#CF1545"/>
<g clip-path="url(#clip0_1022_6080)">
<path d="M62.4871 98C61.1748 97.2296 61.0518 96.2468 62.1317 95.1711C62.2001 95.1046 62.2684 95.025 62.4051 94.8921C61.8993 94.839 61.4482 94.7992 61.0108 94.7593C50.7718 93.7898 42.7748 86.9234 40.5056 77.1617C40.1638 75.6742 39.9861 74.1601 39.9998 72.6195C40.0134 71.7031 40.5876 71.039 41.4351 70.9726C42.3647 70.9062 43.0619 71.464 43.1576 72.4336C43.2806 73.6554 43.2532 74.8906 43.5267 76.0859C45.3584 83.9484 50.2524 88.9687 58.2357 91.1734C59.3703 91.4921 60.546 91.6382 61.7216 91.6914C61.8856 91.7046 62.0634 91.7445 62.2547 91.6382C62.2001 91.439 62.0087 91.3328 61.8856 91.1867C61.2978 90.5492 61.2842 89.6062 61.8583 89.0218C62.4461 88.4242 63.4304 88.3578 64.0729 88.9554C65.2212 90.0179 66.3421 91.107 67.4357 92.2359C68.0645 92.8867 68.0372 93.75 67.3947 94.3875C66.3148 95.4765 65.2075 96.5257 64.1002 97.5882C63.9362 97.7476 63.7038 97.8539 63.5124 97.9867C63.1706 98 62.8289 98 62.4871 98Z" fill="white"/>
<path d="M63.5121 47C64.8244 47.7703 64.9474 48.7664 63.8675 49.8289C63.7991 49.8953 63.7308 49.975 63.5941 50.1078C64.1135 50.1609 64.5783 50.2008 65.0431 50.2406C70.7572 50.7586 75.5964 53.0297 79.5744 57.0406C83.1697 60.6664 85.2339 65.0094 85.8627 69.9898C85.9721 70.8133 86.0267 71.6367 85.9994 72.4734C85.9721 73.3102 85.3843 73.9609 84.564 74.0141C83.6892 74.0805 82.9783 73.5625 82.8553 72.6992C82.7049 71.6367 82.7596 70.5477 82.5682 69.4852C81.4473 63.3359 78.0981 58.7008 72.5207 55.6195C69.978 54.2117 67.2167 53.4547 64.2776 53.2953C64.1135 53.282 63.9358 53.2555 63.7444 53.3484C63.7991 53.5477 63.9905 53.6539 64.1135 53.8C64.715 54.4508 64.7287 55.3672 64.1272 55.9648C63.5257 56.5758 62.5825 56.6422 61.9126 56.0312C60.7507 54.9555 59.6161 53.8531 58.5088 52.7242C57.921 52.1266 57.962 51.2367 58.5498 50.6391C59.6571 49.5234 60.7917 48.4477 61.9126 47.3586C62.063 47.2125 62.2817 47.1195 62.4595 47C62.8285 47 63.1703 47 63.5121 47Z" fill="white"/>
<path d="M63.0199 59.7367C70.2377 59.75 76.1569 65.5406 76.1296 72.5531C76.1022 79.5391 70.1557 85.2766 62.9652 85.2766C55.7474 85.2633 49.8282 79.4727 49.8556 72.4602C49.8829 65.4609 55.8294 59.7234 63.0199 59.7367ZM63.0336 62.8578C57.5382 62.8445 53.0817 67.1211 53.068 72.4336C53.0544 77.8125 57.4562 82.1289 62.9516 82.1289C68.447 82.1422 72.8898 77.8656 72.9171 72.5531C72.9308 67.1875 68.529 62.8711 63.0336 62.8578Z" fill="white"/>
<path d="M63.4307 69.2462C63.0616 69.2462 62.6788 69.2462 62.3097 69.2462C61.7219 69.2594 61.3391 69.5649 61.3118 70.043C61.2845 70.4946 61.7082 70.9329 62.2687 70.9594C62.8155 70.986 63.3623 70.9727 63.9091 70.9727C65.5906 70.986 67.0669 71.9954 67.6411 73.536C68.4339 75.6212 67.313 77.9055 65.1121 78.636C64.7977 78.7422 64.6063 78.8485 64.5516 79.2204C64.4423 79.911 63.7861 80.4157 63.0753 80.4555C62.3781 80.4821 61.6946 80.0172 61.5169 79.3266C61.4348 79.0079 61.2981 78.8618 60.9701 78.7821C60.1772 78.5829 59.7261 77.879 59.8354 77.0688C59.9311 76.3516 60.5599 75.7938 61.3528 75.7672C62.1047 75.7407 62.8565 75.7672 63.6084 75.754C64.2919 75.754 64.7157 75.4352 64.7293 74.9172C64.743 74.3993 64.3056 74.0407 63.5947 74.0274C63.1299 74.0141 62.6788 74.0274 62.214 74.0274C60.2045 74.0141 58.4821 72.593 58.195 70.7071C57.8943 68.7282 59.0426 66.9219 60.9974 66.3243C61.2981 66.2313 61.4348 66.1118 61.4895 65.793C61.6125 65.0758 62.2824 64.5579 63.0069 64.5446C63.7041 64.5313 64.3739 64.9962 64.5516 65.7001C64.6336 66.0055 64.7567 66.1383 65.0711 66.2047C65.8776 66.404 66.3287 67.0946 66.2467 67.9047C66.1647 68.6485 65.5222 69.193 64.702 69.2329C64.2509 69.2594 63.8408 69.2462 63.4307 69.2462Z" fill="white"/>
</g>
<defs>
<clipPath id="clip0_1022_6080">
<rect width="46" height="51" fill="white" transform="translate(40 47)"/>
</clipPath>
</defs>
</svg>
